<svg width="223" height="216" viewBox="0 0 223 216" fill="none" xmlns="http://www.w3.org/2000/svg">
<g filter="url(#filter0_d)">
<path d="M107.372 88.5595C109.644 91.1755 113.345 91.1755 115.65 88.5595L151.003 48.1898C161.261 36.4535 160.677 17.011 149.185 6.19388C139.186 -3.24459 124.285 -1.54778 115.131 8.91584L111.495 13.0518L107.891 8.95119C98.7367 -1.54779 83.836 -3.24459 73.8372 6.19388C62.3776 17.011 61.7608 36.4535 72.0192 48.1898L107.372 88.5595ZM201.516 115.991C197.685 112.209 191.712 112.456 187.687 115.991L157.69 142.115C154.022 145.332 149.445 147.064 144.705 147.064H106.301C103.444 147.064 101.107 144.519 101.107 141.408C101.107 138.297 103.444 135.752 106.301 135.752H131.72C136.881 135.752 141.686 131.899 142.53 126.349C143.601 119.279 138.602 113.128 132.271 113.128H80.3299C71.5648 113.128 63.0918 116.415 56.2744 122.425L41.1789 135.752H23.1942C20.3374 135.752 18 138.297 18 141.408V175.344C18 178.455 20.3374 181 23.1942 181H139.024C143.731 181 148.308 179.268 152.009 176.051L201.094 133.277C206.029 129 206.418 120.799 201.516 115.991Z" fill="url(#paint0_linear)"/>
<path d="M108.997 87.1365L109.003 87.143C110.407 88.7597 112.576 88.7784 114.027 87.1345C114.028 87.1336 114.029 87.1326 114.03 87.1316L149.377 46.7682L108.997 87.1365ZM108.997 87.1365L73.6455 46.7682L108.997 87.1365ZM147.704 7.76672L147.702 7.76461C138.719 -0.714942 125.222 0.661576 116.756 10.3381L116.753 10.342L113.117 14.4779L111.495 16.3237L109.872 14.4776L106.269 10.377L106.263 10.3708C97.7971 0.661353 84.302 -0.714186 75.3199 7.76461L75.3199 7.76463C64.7291 17.7617 64.129 35.8791 73.6442 46.7667L147.704 7.76672ZM147.704 7.76672C158.322 17.7608 158.896 35.8762 149.378 46.7667L147.704 7.76672ZM200.004 117.533L199.998 117.528C197.088 114.655 192.412 114.716 189.112 117.614L189.105 117.62L159.115 143.739C159.114 143.74 159.113 143.74 159.112 143.741C155.058 147.295 149.978 149.224 144.705 149.224H106.301C102.081 149.224 98.9465 145.535 98.9465 141.408C98.9465 137.281 102.081 133.592 106.301 133.592H131.72C135.837 133.592 139.714 130.496 140.394 126.024C141.296 120.07 137.093 115.288 132.271 115.288H80.3299C72.1153 115.288 64.145 118.367 57.704 124.044L200.004 117.533ZM200.004 117.533C204.001 121.454 203.664 128.191 199.679 131.645L199.675 131.649L150.592 174.421L200.004 117.533ZM42.6085 137.371L57.7028 124.045L150.59 174.423C147.269 177.308 143.192 178.84 139.024 178.84H23.1942C21.6998 178.84 20.16 177.439 20.16 175.344V141.408C20.16 139.313 21.6998 137.912 23.1942 137.912H41.1789H41.996L42.6085 137.371Z" stroke="#FFFDFD" stroke-width="4.32"/>
</g>
<defs>
<filter id="filter0_d" x="0.720005" y="0" width="221.56" height="215.56" filterUnits="userSpaceOnUse" color-interpolation-filters="sRGB">
<feFlood flood-opacity="0" result="BackgroundImageFix"/>
<feColorMatrix in="SourceAlpha" type="matrix" values="0 0 0 0 0 0 0 0 0 0 0 0 0 0 0 0 0 0 127 0" result="hardAlpha"/>
<feOffset dy="17.28"/>
<feGaussianBlur stdDeviation="8.64"/>
<feColorMatrix type="matrix" values="0 0 0 0 0 0 0 0 0 0 0 0 0 0 0 0 0 0 0.25 0"/>
<feBlend mode="normal" in2="BackgroundImageFix" result="effect1_dropShadow"/>
<feBlend mode="normal" in="SourceGraphic" in2="effect1_dropShadow" result="shape"/>
</filter>
<linearGradient id="paint0_linear" x1="18" y1="90.5" x2="205" y2="90.5" gradientUnits="userSpaceOnUse">
<stop stop-color="#2B0955"/>
<stop offset="1" stop-color="#2B0955" stop-opacity="0.31"/>
</linearGradient>
</defs>
</svg>
